<mxfile host="app.diagrams.net" agent="Mozilla/5.0 (Macintosh; Intel Mac OS X 10_15_7) AppleWebKit/605.1.15 (KHTML, like Gecko) Version/18.1 Safari/605.1.15" scale="1" border="0" version="26.0.11">
  <diagram id="JIO4U5yVURzNJD8ckPtT" name="Page-1">
    <mxGraphModel dx="838" dy="593" grid="1" gridSize="10" guides="1" tooltips="1" connect="1" arrows="1" fold="1" page="1" pageScale="1" pageWidth="850" pageHeight="1100" math="0" shadow="0">
      <root>
        <mxCell id="0" />
        <mxCell id="1" parent="0" />
        <mxCell id="uCT38nZgMhDlqVbHt4YH-12" style="edgeStyle=orthogonalEdgeStyle;rounded=0;orthogonalLoop=1;jettySize=auto;html=1;exitX=1;exitY=0.5;exitDx=0;exitDy=0;entryX=0;entryY=0.5;entryDx=0;entryDy=0;" parent="1" source="At9daDqTqGgUnNfYn9DA-1" target="uCT38nZgMhDlqVbHt4YH-6" edge="1">
          <mxGeometry relative="1" as="geometry" />
        </mxCell>
        <mxCell id="At9daDqTqGgUnNfYn9DA-1" value="Item pool" style="rounded=1;whiteSpace=wrap;html=1;" parent="1" vertex="1">
          <mxGeometry x="80" y="80" width="120" height="80" as="geometry" />
        </mxCell>
        <mxCell id="uCT38nZgMhDlqVbHt4YH-2" style="edgeStyle=orthogonalEdgeStyle;rounded=0;orthogonalLoop=1;jettySize=auto;html=1;exitX=1;exitY=0.5;exitDx=0;exitDy=0;entryX=0;entryY=0.5;entryDx=0;entryDy=0;" parent="1" source="At9daDqTqGgUnNfYn9DA-5" target="At9daDqTqGgUnNfYn9DA-6" edge="1">
          <mxGeometry relative="1" as="geometry" />
        </mxCell>
        <mxCell id="At9daDqTqGgUnNfYn9DA-5" value="Production model" style="rounded=1;whiteSpace=wrap;html=1;" parent="1" vertex="1">
          <mxGeometry x="80" y="440" width="120" height="80" as="geometry" />
        </mxCell>
        <mxCell id="B2bUZWWEIsz7Ak7yU3f8-8" style="edgeStyle=orthogonalEdgeStyle;rounded=0;orthogonalLoop=1;jettySize=auto;html=1;exitX=1;exitY=0.5;exitDx=0;exitDy=0;entryX=0;entryY=0.5;entryDx=0;entryDy=0;" parent="1" source="At9daDqTqGgUnNfYn9DA-6" target="At9daDqTqGgUnNfYn9DA-8" edge="1">
          <mxGeometry relative="1" as="geometry" />
        </mxCell>
        <mxCell id="At9daDqTqGgUnNfYn9DA-6" value="Ranking service" style="rounded=1;whiteSpace=wrap;html=1;" parent="1" vertex="1">
          <mxGeometry x="280" y="440" width="120" height="80" as="geometry" />
        </mxCell>
        <mxCell id="uCT38nZgMhDlqVbHt4YH-4" style="edgeStyle=orthogonalEdgeStyle;rounded=0;orthogonalLoop=1;jettySize=auto;html=1;exitX=1;exitY=0.5;exitDx=0;exitDy=0;entryX=0;entryY=0.5;entryDx=0;entryDy=0;" parent="1" source="At9daDqTqGgUnNfYn9DA-8" target="u1pCfLqb9s_urc1Lg5YZ-2" edge="1">
          <mxGeometry relative="1" as="geometry" />
        </mxCell>
        <mxCell id="At9daDqTqGgUnNfYn9DA-8" value="Re-ranking" style="rounded=1;whiteSpace=wrap;html=1;" parent="1" vertex="1">
          <mxGeometry x="480" y="440" width="120" height="80" as="geometry" />
        </mxCell>
        <mxCell id="u1pCfLqb9s_urc1Lg5YZ-2" value="Final output" style="rounded=1;whiteSpace=wrap;html=1;" parent="1" vertex="1">
          <mxGeometry x="680" y="440" width="120" height="80" as="geometry" />
        </mxCell>
        <mxCell id="uCT38nZgMhDlqVbHt4YH-13" style="edgeStyle=orthogonalEdgeStyle;rounded=0;orthogonalLoop=1;jettySize=auto;html=1;exitX=0.5;exitY=1;exitDx=0;exitDy=0;entryX=0.5;entryY=0;entryDx=0;entryDy=0;" parent="1" source="uCT38nZgMhDlqVbHt4YH-6" target="At9daDqTqGgUnNfYn9DA-6" edge="1">
          <mxGeometry relative="1" as="geometry" />
        </mxCell>
        <mxCell id="uCT38nZgMhDlqVbHt4YH-6" value="" style="swimlane;startSize=0;" parent="1" vertex="1">
          <mxGeometry x="280" y="80" width="280" height="280" as="geometry" />
        </mxCell>
        <mxCell id="uCT38nZgMhDlqVbHt4YH-7" value="Trending" style="rounded=1;whiteSpace=wrap;html=1;" parent="uCT38nZgMhDlqVbHt4YH-6" vertex="1">
          <mxGeometry x="40" y="40" width="80" height="40" as="geometry" />
        </mxCell>
        <mxCell id="uCT38nZgMhDlqVbHt4YH-8" value="Popular" style="rounded=1;whiteSpace=wrap;html=1;" parent="uCT38nZgMhDlqVbHt4YH-6" vertex="1">
          <mxGeometry x="40" y="200" width="80" height="40" as="geometry" />
        </mxCell>
        <mxCell id="uCT38nZgMhDlqVbHt4YH-9" value="Relevant" style="rounded=1;whiteSpace=wrap;html=1;" parent="uCT38nZgMhDlqVbHt4YH-6" vertex="1">
          <mxGeometry x="40" y="120" width="80" height="40" as="geometry" />
        </mxCell>
        <mxCell id="uCT38nZgMhDlqVbHt4YH-10" value="" style="rounded=1;whiteSpace=wrap;html=1;" parent="uCT38nZgMhDlqVbHt4YH-6" vertex="1">
          <mxGeometry x="160" y="120" width="80" height="40" as="geometry" />
        </mxCell>
        <mxCell id="uCT38nZgMhDlqVbHt4YH-11" value="Candidate generation" style="text;html=1;align=center;verticalAlign=middle;whiteSpace=wrap;rounded=0;" parent="uCT38nZgMhDlqVbHt4YH-6" vertex="1">
          <mxGeometry width="160" height="40" as="geometry" />
        </mxCell>
        <mxCell id="xpojH7EsbCI0WOvUCyon-1" value="" style="swimlane;startSize=0;" vertex="1" parent="1">
          <mxGeometry x="40" y="40" width="800" height="520" as="geometry" />
        </mxCell>
        <mxCell id="xpojH7EsbCI0WOvUCyon-2" value="Serving pipeline" style="text;html=1;align=center;verticalAlign=middle;whiteSpace=wrap;rounded=0;" vertex="1" parent="xpojH7EsbCI0WOvUCyon-1">
          <mxGeometry width="200" height="40" as="geometry" />
        </mxCell>
      </root>
    </mxGraphModel>
  </diagram>
</mxfile>
